HIERARCHY
ROOT Hips
{
	OFFSET -3.958830 18.904000 13.208200
	CHANNELS 6 Xposition Yposition Zposition Zrotation Yrotation Xrotation 
	JOINT LHipJoint
	{
		OFFSET 0.000000 0.000000 0.000000
		CHANNELS 3 Zrotation Yrotation Xrotation
		JOINT LeftUpLeg
		{
			OFFSET 1.800000 -1.400000 0.085000
			CHANNELS 3 Zrotation Yrotation Xrotation
			JOINT LeftLeg
			{
				OFFSET 2.215000 -6.000000 0.000000
				CHANNELS 3 Zrotation Yrotation Xrotation
				JOINT LeftFoot
				{
					OFFSET 2.500000 -6.900000 0.000000
					CHANNELS 3 Zrotation Yrotation Xrotation
					JOINT LeftToeBase
					{
						OFFSET 0.200000 -0.500000 1.950000
						CHANNELS 3 Zrotation Yrotation Xrotation
						End Site
						{
							OFFSET 0.000000 0.000000 0.000000
						}
					}
				}
			}
		}
	}
	JOINT RHipJoint
	{
		OFFSET 0.000000 0.000000 0.000000
		CHANNELS 3 Zrotation Yrotation Xrotation
		JOINT RightUpLeg
		{
			OFFSET -1.800000 -1.400000 0.085000
			CHANNELS 3 Zrotation Yrotation Xrotation
			JOINT RightLeg
			{
				OFFSET -2.215000 -6.000000 0.000000
				CHANNELS 3 Zrotation Yrotation Xrotation
				JOINT RightFoot
				{
					OFFSET -2.500000 -6.900000 0.000000
					CHANNELS 3 Zrotation Yrotation Xrotation
					JOINT RightToeBase
					{
						OFFSET -0.200000 -0.500000 1.950000
						CHANNELS 3 Zrotation Yrotation Xrotation
						End Site
						{
							OFFSET 0.000000 0.000000 0.000000
						}
					}
				}
			}
		}
	}
	JOINT LowerBack
	{
		OFFSET 0.000000 0.000000 0.000000
		CHANNELS 3 Zrotation Yrotation Xrotation
		JOINT Spine
		{
			OFFSET -0.087000 1.940000 -0.288900
			CHANNELS 3 Zrotation Yrotation Xrotation
			JOINT Spine1
			{
				OFFSET 0.000000 1.950000 0.060000
				CHANNELS 3 Zrotation Yrotation Xrotation
				JOINT Neck
				{
					OFFSET 0.000000 0.000000 0.000000
					CHANNELS 3 Zrotation Yrotation Xrotation
					JOINT Neck1
					{
						OFFSET 0.000000 1.600000 0.340000
						CHANNELS 3 Zrotation Yrotation Xrotation
						JOINT Head
						{
							OFFSET 0.000000 1.667000 -0.240000
							CHANNELS 3 Zrotation Yrotation Xrotation
							End Site
							{
								OFFSET 0.000000 0.000000 0.000000
							}
						}
					}
				}
				JOINT LeftShoulder
				{
					OFFSET 0.000000 0.000000 0.000000
					CHANNELS 3 Zrotation Yrotation Xrotation
					JOINT LeftArm
					{
						OFFSET 2.700000 1.550000 -0.730000
						CHANNELS 3 Zrotation Yrotation Xrotation
						JOINT LeftForeArm
						{
							OFFSET 5.450000 0.000000 0.000000
							CHANNELS 3 Zrotation Yrotation Xrotation
							JOINT LeftHand
							{
								OFFSET 3.450000 0.000000 0.000000
								CHANNELS 3 Zrotation Yrotation Xrotation
								JOINT LeftHandIndex1
								{
									OFFSET 0.750000 0.000000 0.000000
									CHANNELS 3 Zrotation Yrotation Xrotation
									End Site
									{
										OFFSET 0.000000 0.000000 0.000000
									}
								}
							}
						}
					}
				}
				JOINT RightShoulder
				{
					OFFSET 0.000000 0.000000 0.000000
					CHANNELS 3 Zrotation Yrotation Xrotation
					JOINT RightArm
					{
						OFFSET -2.700000 1.550000 -0.730000
						CHANNELS 3 Zrotation Yrotation Xrotation
						JOINT RightForeArm
						{
							OFFSET -5.450000 0.000000 0.000000
							CHANNELS 3 Zrotation Yrotation Xrotation
							JOINT RightHand
							{
								OFFSET -3.450000 0.000000 0.000000
								CHANNELS 3 Zrotation Yrotation Xrotation
								JOINT RightHandIndex1
								{
									OFFSET -0.750000 0.000000 0.000000
									CHANNELS 3 Zrotation Yrotation Xrotation
									End Site
									{
										OFFSET 0.000000 0.000000 0.000000
									}
								}
							}
						}
					}
				}
			}
		}
	}
}
MOTION
Frames: 12
Frame Time: 0.016667
17.833910 17.228020 -24.221660 -3.200737 -21.272828 -8.858628 -15.562889 13.680420 3.959050 -6.869307 -1.590740 -9.813748 3.628789 2.129013 -10.255784 -0.164220 3.023395 3.603620 0.072630 -0.055020 0.171010 17.928151 -9.306495 3.048038 -6.649802 2.107967 -20.519206 18.258284 -5.349171 8.471871 -0.151872 -2.930807 3.271694 -0.018350 0.060750 0.059460 -2.293731 -5.156266 -8.512254 -1.631850 -3.236578 30.573761 2.410374 -3.358622 6.242163 1.096634 -6.103213 -16.156059 -16.656126 9.412616 37.466582 -3.510180 7.648220 -7.022570 -11.921385 -17.746087 5.379770 9.724605 -7.911160 -1.553069 7.835499 -6.005325 -0.375940 -3.885161 2.634664 0.366390 -0.023780 0.102360 0.019460 11.093167 21.592402 13.459125 1.423028 -0.711115 -0.658549 -2.581051 5.441203 0.184474 2.700543 -0.941479 -0.174770 0.163750 0.034050 -0.127260 
17.795440 17.310530 -24.106380 -2.011869 -21.544436 -8.206163 -15.621193 13.479836 4.165105 -6.444170 -1.442796 -6.964584 1.453567 1.999633 -14.561615 -0.003936 3.464949 3.466997 0.058770 -0.061320 0.125590 17.915467 -9.262187 2.918411 -6.963100 1.887777 -20.854155 16.733753 -5.042084 8.188862 -0.099919 -2.807008 3.323631 -0.021960 0.097190 0.066880 -2.215062 -4.994065 -8.609094 -2.675141 -2.846710 27.242531 2.554119 -3.405223 7.178008 0.801729 -5.660128 -16.398120 -16.163860 9.640279 39.343961 -2.273390 7.440240 -4.339760 -10.780331 -17.881118 5.814052 8.733988 -7.946016 -1.331845 8.308279 -6.272395 -0.378220 -3.903386 2.680614 0.325590 0.006340 0.071860 0.035520 10.537266 21.479338 13.253561 1.917258 0.508130 -0.579216 -3.147093 5.253948 0.147311 2.713396 -0.973019 -0.164260 0.144550 0.040490 -0.104460 
17.693530 17.380190 -23.938400 -1.025049 -21.332488 -4.956400 -15.745390 12.764260 4.737185 -2.854250 -2.128112 -2.567036 -5.514011 0.643401 -25.139251 0.384018 4.628829 3.115258 0.049770 -0.053050 0.078380 17.934889 -8.905269 2.736486 -6.666075 2.046155 -23.018720 15.073724 -4.341285 6.772111 -0.012640 -2.535827 3.426274 -0.007130 0.159480 0.084770 -2.199498 -4.627041 -8.863189 -2.637331 -3.547684 20.768638 1.821505 -4.103843 7.602419 0.504638 -5.583674 -15.823667 -15.897751 10.007205 39.481550 -2.042490 7.749930 -1.391030 -9.386573 -17.044391 5.896435 7.729909 -8.882845 -0.843363 8.128033 -5.054897 -0.340063 -3.971562 2.743716 0.241040 0.073350 0.017480 0.062680 9.736866 20.456545 12.102691 1.727689 3.186406 -0.407587 -3.483591 7.141976 0.080414 2.690238 -1.048830 -0.151420 0.118670 0.037430 -0.071210 
17.584680 17.494760 -23.797470 0.303428 -21.676923 -4.419229 -15.793187 12.611138 4.846715 -0.900997 -1.815113 0.830851 -6.659068 0.508270 -27.051637 0.522887 5.090299 2.968914 0.043580 -0.053450 0.050480 17.933125 -8.807184 2.674992 -6.728011 1.964590 -22.591961 14.133636 -3.862562 5.037024 0.005437 -2.440588 3.456468 -0.000580 0.196440 0.097870 -2.166730 -4.544603 -8.861121 -3.523097 -3.553357 17.870791 1.332002 -4.132331 8.755682 0.222164 -5.664097 -16.284960 -16.291450 11.648025 40.046782 -0.493930 8.653470 -0.331010 -7.628089 -17.743959 6.531881 7.250625 -9.830241 -0.415434 7.423687 -1.884045 -0.389430 -4.058244 2.726176 0.218790 0.094890 -0.002790 0.067230 8.597316 21.152967 11.781427 1.285077 5.531786 -0.426652 -4.354026 9.492436 0.080869 2.642105 -1.066741 -0.149250 0.116390 0.058030 -0.059490 
17.461770 17.548040 -23.641650 1.034924 -21.686507 -3.088758 -15.700728 12.853183 4.468760 0.762290 -1.155017 0.320526 -9.144702 1.382302 -20.203530 0.367303 5.038299 2.992014 0.020750 -0.067600 -0.003750 17.986310 -9.054727 2.630485 -6.069813 1.836921 -21.886213 11.555019 -3.554762 5.038084 0.080245 -2.375488 3.475317 0.045500 0.304510 0.135750 -2.350351 -4.444850 -8.420354 -3.078652 -4.089385 14.271099 -0.019086 -4.187238 10.860619 -0.654457 -5.731621 -15.732299 -15.264094 13.043073 35.902915 0.615740 9.869380 -0.370740 -3.902447 -17.743776 6.583285 7.208654 -11.781201 0.205457 6.749622 -1.846408 -0.439732 -4.192175 2.772977 0.145440 0.192220 -0.084640 0.063950 6.333865 20.756999 10.866491 1.560264 9.661116 0.402404 -4.020376 7.727653 -0.039918 2.635877 -1.091927 -0.176340 0.133610 0.122230 -0.051560 
17.361070 17.614510 -23.488680 1.318400 -22.376357 -2.723193 -15.599871 13.086747 4.170538 0.911760 -0.604465 -0.395555 -9.282382 2.229917 -15.136821 0.277719 4.781233 3.092523 0.024720 -0.041120 -0.038120 18.035814 -9.319023 2.649228 -5.182658 1.667207 -20.429758 10.138685 -3.429733 5.141989 0.101531 -2.391273 3.502422 0.069570 0.347660 0.127410 -2.522373 -4.311134 -8.171493 -2.010382 -4.034956 13.012638 -0.966908 -3.625263 11.549777 -1.103175 -6.013856 -15.669329 -15.774669 12.244834 34.562163 1.112890 8.491230 0.043800 -2.423379 -18.439979 5.927400 8.177158 -14.985488 0.138847 6.991595 -1.635198 -0.446722 -4.227144 2.776844 0.091140 0.221220 -0.118050 0.088030 5.634661 21.459283 11.337775 1.292444 9.402779 0.353101 -5.395520 9.184581 -0.160731 2.586004 -1.149372 -0.169510 0.153620 0.115780 -0.018590 
17.241480 17.649570 -23.308610 1.458083 -22.631555 -2.586620 -15.555076 13.254380 3.940037 1.040496 -0.477539 -2.083965 -9.789611 2.820020 -11.049567 0.190686 4.530972 3.160843 0.049580 0.004750 -0.037000 18.046294 -9.447961 2.661863 -5.144818 1.355053 -17.815614 10.632915 -3.631051 4.931330 0.058110 -2.624799 3.426077 0.098670 0.344850 0.135280 -2.573378 -4.364948 -7.980715 -1.282068 -3.856961 11.608446 -1.199669 -3.207054 12.132960 -1.319294 -6.035056 -15.513833 -15.740881 11.848684 33.230281 1.127550 8.168510 -0.243620 -0.921816 -19.155280 5.017490 8.782443 -19.149584 0.366504 5.933369 -0.788919 -0.409381 -4.237011 2.812878 0.054530 0.231470 -0.122310 0.096710 4.469973 21.951610 11.830962 0.823063 8.358764 0.327866 -5.516119 11.700991 -0.154006 2.520068 -1.206560 -0.147570 0.139520 0.099740 -0.004350 
17.136340 17.662080 -23.176290 1.628547 -22.972605 -2.885823 -15.495095 13.491671 3.670312 -0.014196 -0.389683 -4.460215 -8.339603 3.384059 -6.111493 -0.009701 4.154773 3.284696 0.031050 -0.032800 -0.062080 18.056325 -9.650681 2.710961 -4.747297 1.151811 -15.704526 10.732663 -3.905657 5.494435 0.042737 -2.842052 3.353171 0.106070 0.402250 0.154810 -2.617572 -4.375886 -7.795267 -0.997347 -2.916185 11.223969 -1.478171 -1.962901 13.349465 -1.690416 -5.518864 -15.559791 -14.755927 11.112210 32.743127 1.330260 7.560490 0.168930 1.466992 -21.209566 3.410434 10.334417 -25.076215 0.376070 4.852102 2.625629 -0.585045 -4.348340 2.776430 0.046570 0.272800 -0.161470 0.102670 2.616076 23.524115 12.946224 0.540935 8.208074 0.413573 -6.862889 11.298002 -0.305985 2.477009 -1.243355 -0.178540 0.156240 0.134140 -0.006110 
17.042910 17.685920 -23.058520 1.375680 -23.514981 -3.073354 -15.491196 13.497005 3.649540 -0.055683 -0.689648 -6.341845 -9.358305 3.516083 -4.970573 -0.033515 4.027779 3.320806 0.075840 0.021030 -0.038550 18.056645 -9.666180 2.731174 -3.745890 0.896403 -13.076468 10.810209 -4.006214 5.209613 -0.012012 -3.026464 3.301546 0.133950 0.392230 0.149680 -2.602250 -4.424797 -7.803077 -0.682961 -2.348989 11.447416 -0.948621 -1.366455 14.388151 -2.016049 -5.177420 -15.695143 -14.341343 10.701589 33.172756 1.771430 7.197710 0.577740 3.151548 -23.152519 2.344651 10.636295 -28.594224 0.357625 4.929104 3.296754 -0.589645 -4.317751 2.837295 0.024280 0.267370 -0.163030 0.125020 1.427919 25.231863 13.541448 -1.085949 8.497716 0.014536 -9.022779 12.390565 -0.571919 2.452786 -1.324815 -0.161090 0.142790 0.094820 0.004330 
16.930600 17.677600 -22.930710 1.208944 -24.107931 -3.667168 -15.447229 13.467990 3.592236 0.026901 -1.112923 -8.790015 -10.444554 3.754962 -2.928384 -0.106854 3.873267 3.341058 0.148100 0.120960 0.014530 18.094520 -9.709693 2.782530 -2.933521 0.513271 -10.177051 10.808362 -4.091810 4.543766 -0.108902 -3.226900 3.225513 0.194750 0.360700 0.153380 -2.710476 -4.372580 -7.777429 -0.200222 -2.510353 11.922191 -1.671514 -1.283028 14.941162 -2.316077 -4.767451 -15.276409 -13.568182 11.123084 33.583773 2.327030 7.698940 -1.052850 4.569336 -24.563772 1.528900 11.712599 -30.502116 -0.147928 5.318745 4.442380 -0.701388 -4.312499 2.838495 0.033110 0.249190 -0.123460 0.136080 0.316875 26.210271 12.856205 -1.816161 10.918957 -0.814002 -12.704594 15.486094 -1.172988 2.371832 -1.407096 -0.142550 0.155600 0.057110 0.003000 
16.809140 17.613330 -22.769120 -0.053503 -26.912375 -2.799354 -15.372651 13.202645 3.514305 0.711098 -1.525279 -11.125913 -11.094998 3.707686 -2.674036 -0.174496 3.795007 3.367918 0.143660 0.127550 -0.000920 18.202826 -9.718315 2.914482 -1.293689 0.169742 -7.569600 11.664875 -4.120620 2.817080 -0.162988 -3.518526 3.140122 0.230770 0.415980 0.145940 -3.043245 -3.943075 -7.694121 2.418049 -2.384862 10.512552 -2.347605 -1.004081 14.917262 -2.675347 -4.706932 -14.251607 -12.911510 11.558176 33.029588 2.735810 7.969290 -0.349140 5.314746 -24.845986 1.662505 11.773645 -31.655588 0.070604 5.390209 4.210754 -0.713435 -4.349691 2.879006 -0.018070 0.297050 -0.173760 0.140610 0.056885 26.271240 10.977800 -1.853467 13.699680 -2.428062 -18.122684 22.473640 -2.659265 2.213608 -1.531490 -0.164880 0.180290 0.070530 0.010050 
16.687220 17.516050 -22.602470 -0.630851 -29.058990 -1.652181 -15.364085 12.952870 3.520028 0.511752 -2.092033 -14.350718 -11.341168 3.460089 -3.035441 -0.221180 3.617587 3.454618 0.066390 0.051170 -0.083280 18.242839 -9.673400 3.061166 0.124303 -0.252138 -5.477396 11.393471 -3.752741 -0.294052 -0.164876 -3.724776 3.126781 0.206270 0.500730 0.138460 -3.167673 -3.638965 -7.724237 3.778654 -1.319561 9.125294 -2.270375 0.120858 15.106491 -2.312971 -4.699290 -14.473602 -12.367077 9.816456 31.600549 1.453860 6.672830 1.568380 6.925667 -25.999266 1.114277 11.253803 -33.405399 0.287166 6.580455 3.265222 -0.679886 -4.409906 2.908813 -0.091100 0.374350 -0.256110 0.148310 -2.195838 27.994845 11.279946 -3.905483 14.707950 -2.179272 -17.628331 21.719745 -2.468504 2.208322 -1.565832 -0.192160 0.191510 0.104860 0.033040 
